<svg width="131" height="30" viewBox="0 0 131 30" fill="none" xmlns="http://www.w3.org/2000/svg">
<path d="M11.916 29C11.388 29 10.944 28.82 10.584 28.46C10.224 28.1 10.044 27.656 10.044 27.128V0.883999H13.788V27.128C13.788 27.656 13.608 28.1 13.248 28.46C12.888 28.82 12.444 29 11.916 29ZM2.268 4.34C1.764 4.34 1.344 4.184 1.008 3.872C0.696 3.536 0.54 3.116 0.54 2.612C0.54 2.108 0.696 1.7 1.008 1.388C1.344 1.052 1.764 0.883999 2.268 0.883999H21.528C22.032 0.883999 22.44 1.052 22.752 1.388C23.088 1.7 23.256 2.108 23.256 2.612C23.256 3.116 23.088 3.536 22.752 3.872C22.44 4.184 22.032 4.34 21.528 4.34H2.268ZM38.6038 29.36C36.4918 29.36 34.5598 29.012 32.8078 28.316C31.0558 27.596 29.5438 26.6 28.2718 25.328C27.0238 24.032 26.0518 22.508 25.3558 20.756C24.6598 18.98 24.3118 17.036 24.3118 14.924C24.3118 12.812 24.6598 10.88 25.3558 9.128C26.0518 7.376 27.0238 5.864 28.2718 4.592C29.5438 3.296 31.0558 2.3 32.8078 1.604C34.5598 0.883999 36.4918 0.524 38.6038 0.524C40.7158 0.524 42.6358 0.883999 44.3638 1.604C46.1158 2.3 47.6278 3.296 48.8998 4.592C50.1718 5.864 51.1558 7.376 51.8518 9.128C52.5478 10.88 52.8958 12.812 52.8958 14.924C52.8958 17.036 52.5478 18.98 51.8518 20.756C51.1558 22.508 50.1718 24.032 48.8998 25.328C47.6278 26.6 46.1158 27.596 44.3638 28.316C42.6358 29.012 40.7158 29.36 38.6038 29.36ZM38.6038 25.976C40.1638 25.976 41.5918 25.7 42.8878 25.148C44.2078 24.572 45.3478 23.792 46.3078 22.808C47.2678 21.8 47.9998 20.624 48.5038 19.28C49.0318 17.936 49.2958 16.484 49.2958 14.924C49.2958 13.364 49.0318 11.912 48.5038 10.568C47.9998 9.224 47.2678 8.06 46.3078 7.076C45.3478 6.068 44.2078 5.288 42.8878 4.736C41.5918 4.184 40.1638 3.908 38.6038 3.908C37.0438 3.908 35.6038 4.184 34.2838 4.736C32.9878 5.288 31.8598 6.068 30.8998 7.076C29.9638 8.06 29.2318 9.224 28.7038 10.568C28.1758 11.912 27.9118 13.364 27.9118 14.924C27.9118 16.484 28.1758 17.936 28.7038 19.28C29.2318 20.624 29.9638 21.8 30.8998 22.808C31.8598 23.792 32.9878 24.572 34.2838 25.148C35.6038 25.7 37.0438 25.976 38.6038 25.976ZM70.657 29.36C68.713 29.36 66.889 29 65.185 28.28C63.505 27.536 62.029 26.516 60.757 25.22C59.509 23.9 58.525 22.364 57.805 20.612C57.109 18.86 56.761 16.964 56.761 14.924C56.761 12.908 57.109 11.036 57.805 9.308C58.525 7.556 59.509 6.032 60.757 4.736C62.029 3.416 63.505 2.384 65.185 1.64C66.865 0.895999 68.689 0.524 70.657 0.524C72.505 0.524 74.089 0.763999 75.409 1.244C76.753 1.724 78.097 2.516 79.441 3.62C79.633 3.764 79.777 3.92 79.873 4.088C79.993 4.232 80.065 4.388 80.089 4.556C80.137 4.7 80.161 4.88 80.161 5.096C80.161 5.552 79.993 5.936 79.657 6.248C79.345 6.56 78.949 6.728 78.469 6.752C78.013 6.776 77.581 6.62 77.173 6.284C76.285 5.516 75.361 4.928 74.401 4.52C73.465 4.112 72.217 3.908 70.657 3.908C69.241 3.908 67.909 4.196 66.661 4.772C65.413 5.348 64.309 6.14 63.349 7.148C62.413 8.156 61.681 9.332 61.153 10.676C60.625 11.996 60.361 13.412 60.361 14.924C60.361 16.46 60.625 17.9 61.153 19.244C61.681 20.564 62.413 21.728 63.349 22.736C64.309 23.744 65.413 24.536 66.661 25.112C67.909 25.664 69.241 25.94 70.657 25.94C71.881 25.94 73.033 25.736 74.113 25.328C75.217 24.896 76.273 24.308 77.281 23.564C77.713 23.252 78.133 23.12 78.541 23.168C78.973 23.192 79.333 23.36 79.621 23.672C79.909 23.96 80.053 24.368 80.053 24.896C80.053 25.136 80.005 25.376 79.909 25.616C79.837 25.832 79.693 26.036 79.477 26.228C78.205 27.284 76.825 28.076 75.337 28.604C73.849 29.108 72.289 29.36 70.657 29.36ZM80.053 24.896L76.453 24.176V17.732H71.485C70.957 17.732 70.513 17.576 70.153 17.264C69.793 16.952 69.613 16.556 69.613 16.076C69.613 15.596 69.793 15.2 70.153 14.888C70.513 14.576 70.957 14.42 71.485 14.42H78.217C78.769 14.42 79.213 14.6 79.549 14.96C79.885 15.296 80.053 15.74 80.053 16.292V24.896ZM87.9134 29C87.3854 29 86.9414 28.82 86.5814 28.46C86.2214 28.1 86.0414 27.656 86.0414 27.128V2.756C86.0414 2.204 86.2214 1.76 86.5814 1.424C86.9414 1.064 87.3854 0.883999 87.9134 0.883999H94.3934C96.1934 0.883999 97.7894 1.268 99.1814 2.036C100.573 2.78 101.653 3.812 102.421 5.132C103.213 6.452 103.609 7.988 103.609 9.74C103.609 11.372 103.213 12.824 102.421 14.096C101.653 15.368 100.573 16.364 99.1814 17.084C97.7894 17.804 96.1934 18.164 94.3934 18.164H89.7854V27.128C89.7854 27.656 89.6054 28.1 89.2454 28.46C88.9094 28.82 88.4654 29 87.9134 29ZM102.853 29C102.517 29 102.205 28.928 101.917 28.784C101.653 28.64 101.425 28.412 101.233 28.1L94.7534 17.66L98.3894 16.616L104.293 26.12C104.725 26.816 104.785 27.476 104.473 28.1C104.161 28.7 103.621 29 102.853 29ZM89.7854 14.708H94.3934C95.4974 14.708 96.4694 14.504 97.3094 14.096C98.1494 13.664 98.8094 13.076 99.2894 12.332C99.7694 11.564 100.009 10.7 100.009 9.74C100.009 8.684 99.7694 7.748 99.2894 6.932C98.8094 6.116 98.1494 5.48 97.3094 5.024C96.4694 4.568 95.4974 4.34 94.3934 4.34H89.7854V14.708ZM107.672 29C107 29 106.484 28.712 106.124 28.136C105.764 27.56 105.728 26.948 106.016 26.3L116.132 2.144C116.492 1.304 117.08 0.883999 117.896 0.883999C118.76 0.883999 119.348 1.304 119.66 2.144L129.812 26.372C130.076 27.044 130.028 27.656 129.668 28.208C129.332 28.736 128.816 29 128.12 29C127.76 29 127.412 28.904 127.076 28.712C126.764 28.496 126.536 28.208 126.392 27.848L117.464 5.672H118.472L109.4 27.848C109.232 28.232 108.98 28.52 108.644 28.712C108.332 28.904 108.008 29 107.672 29ZM109.58 22.808L111.02 19.712H125.132L126.572 22.808H109.58Z" fill="#FFA500"/>
</svg>
